<svg
    width="18"
    height="18"
    viewBox="0 0 16 16"
    fill="none"
    xmlns="http://www.w3.org/2000/svg"
  >
    <path
      d="M10.9126 10.9746C10.0966 10.9746 9.42383 11.6331 9.42383 12.4634C9.42383 13.2793 10.0823 13.9521 10.9126 13.9521C11.7285 13.9521 12.4013 13.2936 12.4013 12.4634C12.387 11.6474 11.7285 10.9746 10.9126 10.9746Z"
      fill="white"
    ></path>
    <path
      d="M13.5322 3.87351C13.5035 3.87351 13.4606 3.85919 13.4176 3.85919H4.39927L4.25612 2.9001C4.17024 2.27024 3.62627 1.79785 2.9821 1.79785H1.8226C1.50767 1.79785 1.25 2.05552 1.25 2.37045C1.25 2.68537 1.50767 2.94304 1.8226 2.94304H2.9821C3.05367 2.94304 3.11093 3.0003 3.12525 3.07188L4.01277 9.11275C4.12729 9.87144 4.78577 10.444 5.55878 10.444H11.5138C12.2581 10.444 12.9023 9.91439 13.0598 9.18433L13.9902 4.53199C14.0475 4.23138 13.8471 3.93077 13.5322 3.87351Z"
      fill="white"
    ></path>
    <path
      d="M7.26233 12.3918C7.2337 11.6045 6.57521 10.9746 5.78789 10.9746C4.95763 11.0176 4.32778 11.7047 4.35641 12.5206C4.38504 13.3079 5.02921 13.9378 5.81652 13.9378H5.84515C6.6611 13.8948 7.30527 13.2077 7.26233 12.3918Z"
      fill="white"
    ></path>
</svg>